<?xml version="1.0" encoding="UTF-8"?>
<svg id="Layer_1" data-name="Layer 1" xmlns="http://www.w3.org/2000/svg" viewBox="0 0 1885.14 559.25">
  <defs>
    <style>
      .cls-1 {
        fill: #c69c6d;
      }
    </style>
  </defs>
  <path class="cls-1" d="M1776.62,39.22c-42.44-26.32-84.88-39.22-119.26-39.22H292.27c-50.5,0-92.81,21.17-117.11,35.46-52.11,30.62-76.82,74.67-76.82,74.67C32.26,166-1.05,222.95.03,312.66c1.07,89.72,39.26,154.23,100.46,199.31,48.88,36.01,92.94,47.28,143.44,47.28h1338.76c56.95,0,104.22-19.88,140.75-45.66,35.98-25.4,62.85-64.47,62.85-64.47,0,0,39.31-28.38,64.47-69.84,19.04-31.39,34.38-62.71,34.38-138.6,0-101-66.08-175.13-108.52-201.46ZM1784.46,446.78s-27.82,28.41-91.45,42.32c-26.88,5.88-48.24,5.03-87.6,5.03H321.57c-41.14,0-93.35-.84-150.05-39.95-72.51-50.02-110.32-117.93-110.98-199.47-.59-73.4,16.33-106.07,38.94-142.27,0,0,29.97-26.1,79.7-40.03,39.1-10.96,59.52-8.59,96.22-8.59h1301.6c35.81,0,73.55.99,134.07,37.59,62.15,37.59,113.65,112.17,113.94,205.69.3,93.52-40.55,139.69-40.55,139.69Z"/>
</svg>